<?xml version="1.0" encoding="UTF-8" standalone="no"?>
<svg width="60px" height="60px" viewBox="0 0 60 60" version="1.1" xmlns="http://www.w3.org/2000/svg" xmlns:xlink="http://www.w3.org/1999/xlink" xmlns:sketch="http://www.bohemiancoding.com/sketch/ns">
    <!-- Generator: Sketch 3.2.2 (9983) - http://www.bohemiancoding.com/sketch -->
    <title>Holdinghearth</title>
    <desc>Created with Sketch.</desc>
    <defs></defs>
    <g id="stroked" stroke="none" stroke-width="1" fill="none" fill-rule="evenodd" sketch:type="MSPage">
        <g id="Medical" sketch:type="MSLayerGroup" transform="translate(-140.000000, -1197.000000)" stroke="#9c27b0" stroke-width="2" stroke-linecap="round" stroke-linejoin="round">
            <g id="Holdinghearth" transform="translate(142.000000, 1207.000000)" sketch:type="MSShapeGroup">
                <path d="M1.591696,20.0161103 C0.641941424,18.9607769 -0.0443474238,19.2474032 0.0738349661,20.6697027 C0.0738349661,20.6697027 0.140405425,22.0534995 0.31178709,22.5436311 C1.21007144,25.11262 3.43185302,28.0836472 3.43185302,28.0836472 C4.23598199,29.2476374 5.86979213,30.809364 7.05980167,31.5584726 L15.7800663,37.0478622 C16.979598,37.8029651 18.2249299,39.533715 18.5596755,40.9057415 L18.5740862,40.9648069 C18.9096902,42.3403519 20.2818233,43.10682 21.6354784,42.6778239 L24.7607413,41.6873755 C26.1158975,41.2579037 27.066497,39.7639329 26.885681,38.3637884 L26.1101323,32.358343 C25.9285479,30.9522483 24.8599875,29.1197099 23.7169526,28.2603798 L17.7646145,23.7854305 C16.6244823,22.9282826 15.6082316,23.379246 15.6285844,24.8076895 C15.6285844,24.8076895 15.3618066,25.0790221 15.8776595,25.5647018 C16.3935125,26.0503814 18.1475843,28.9467275 18.1475843,28.9467275 C18.8965702,30.152207 18.4125322,30.7597388 17.0623387,30.302293 L10.5646397,28.1008716 C9.21628921,27.6440502 7.34698025,26.4111766 6.40355239,25.3628733 L1.591696,20.0161103 Z" id="Path-686"></path>
                <path d="M30.591696,20.0161103 C29.6419414,18.9607769 28.9556526,19.2474032 29.073835,20.6697027 C29.073835,20.6697027 29.1404054,22.0534995 29.3117871,22.5436311 C30.2100714,25.11262 32.431853,28.0836472 32.431853,28.0836472 C33.235982,29.2476374 34.8697921,30.809364 36.0598017,31.5584726 L44.7800663,37.0478622 C45.979598,37.8029651 47.2249299,39.533715 47.5596755,40.9057415 L47.5740862,40.9648069 C47.9096902,42.3403519 49.2818233,43.10682 50.6354784,42.6778239 L53.7607413,41.6873755 C55.1158975,41.2579037 56.066497,39.7639329 55.885681,38.3637884 L55.1101323,32.358343 C54.9285479,30.9522483 53.8599875,29.1197099 52.7169526,28.2603798 L46.7646145,23.7854305 C45.6244823,22.9282826 44.6082316,23.379246 44.6285844,24.8076895 C44.6285844,24.8076895 44.3618066,25.0790221 44.8776595,25.5647018 C45.3935125,26.0503814 47.1475843,28.9467275 47.1475843,28.9467275 C47.8965702,30.152207 47.4125322,30.7597388 46.0623387,30.302293 L39.5646397,28.1008716 C38.2162892,27.6440502 36.3469803,26.4111766 35.4035524,25.3628733 L30.591696,20.0161103 Z" id="Path-686" transform="translate(42.500000, 31.000000) scale(-1, 1) translate(-42.500000, -31.000000) "></path>
                <path d="M16.2701536,7.46444771 C15.2038039,3.93087574 19.1346797,0 22.6682516,0 C24.8936922,0 26.8537578,1.13620553 28,2.86016829 C29.1462422,1.13620553 31.1063078,0 33.3317484,0 C36.8653203,0 40.7961961,3.93087574 39.7298464,7.46444771 C38.6634967,10.9980197 28,19 28,19 C28,19 17.3365033,10.9980197 16.2701536,7.46444771 Z" id="Oval-270"></path>
            </g>
        </g>
    </g>
</svg>